<svg width="43" height="40" viewBox="0 0 43 40" fill="none" xmlns="http://www.w3.org/2000/svg">
<path fill-rule="evenodd" clip-rule="evenodd" d="M21.5 0C33.3723 0 43 8.93217 43 19.9468C43 29.0516 36.4213 36.7328 27.4347 39.123V24.3613H32.0709L32.7657 19.367H27.4347V16.1861C27.4347 14.7437 27.8664 13.7606 30.0959 13.7606H32.9219V9.30593C32.4301 9.24537 30.7432 9.10962 28.7807 9.10962C24.6825 9.10962 21.8779 11.4295 21.8779 15.6918V19.367H17.2588V24.3613H21.8779V39.8891L21.8362 39.8898L21.8357 39.8898C21.7238 39.8917 21.6122 39.8936 21.5 39.8936C9.62769 39.8936 0 30.9614 0 19.9468C0 8.93217 9.62769 0 21.5 0ZM26.9954 39.241L26.956 39.2547L26.9557 39.2548L26.9553 39.255L26.9549 39.2551C26.902 39.2735 26.849 39.292 26.7959 39.3096C26.8625 39.2875 26.9291 39.2645 26.9954 39.241Z" fill="#62AC9A"/>
</svg>
