<svg width="43" height="40" viewBox="0 0 43 40" fill="none" xmlns="http://www.w3.org/2000/svg">
<path fill-rule="evenodd" clip-rule="evenodd" d="M21.5 0C9.62769 0 0 8.95599 0 20C0 31.044 9.62769 40 21.5 40C33.3723 40 43 31.044 43 20C43 8.95599 33.3723 0 21.5 0ZM33.7712 24.7348C33.7115 25.9573 33.5025 26.792 33.1974 27.5226C32.5561 29.0652 31.2451 30.2847 29.5868 30.8813C28.8017 31.1652 27.9041 31.3593 26.5902 31.4151C25.2737 31.4709 24.8531 31.4844 21.5003 31.4844C18.1472 31.4844 17.7269 31.4709 16.4101 31.4151C15.0962 31.3593 14.1986 31.1652 13.4136 30.8813C12.5895 30.593 11.8434 30.141 11.2267 29.5566C10.5988 28.9832 10.1129 28.2889 9.80288 27.5226C9.49778 26.7923 9.2888 25.9573 9.2291 24.7351C9.1684 23.5101 9.1543 23.1189 9.1543 20C9.1543 16.8811 9.1684 16.4899 9.22877 15.2652C9.28848 14.0427 9.49712 13.208 9.80222 12.4774C10.1122 11.7111 10.5984 11.0168 11.2267 10.4434C11.8431 9.85901 12.5895 9.40704 13.4132 9.11865C14.1986 8.83484 15.0959 8.64075 16.4101 8.5849C17.7266 8.52905 18.1472 8.51562 21.5 8.51562C24.8528 8.51562 25.2734 8.52905 26.5899 8.58521C27.9041 8.64075 28.8014 8.83484 29.5868 9.11835C30.4105 9.40674 31.1569 9.85901 31.7737 10.4434C32.4016 11.0172 32.8878 11.7111 33.1974 12.4774C33.5029 13.208 33.7115 14.0427 33.7716 15.2652C33.8316 16.4899 33.8457 16.8811 33.8457 20C33.8457 23.1189 33.8316 23.5101 33.7712 24.7348ZM31.1241 13.2269C30.9263 12.7283 30.6107 12.2769 30.2006 11.9064C29.8023 11.525 29.3174 11.2314 28.7811 11.0474C28.346 10.8902 27.6925 10.7031 26.4889 10.6522C25.1868 10.5969 24.7964 10.585 21.5 10.585C18.2033 10.585 17.8129 10.5966 16.5111 10.6519C15.3075 10.7031 14.6536 10.8902 14.2189 11.0474C13.6826 11.2314 13.1974 11.525 12.7994 11.9064C12.3893 12.2769 12.0737 12.728 11.8756 13.2269C11.7066 13.6316 11.5055 14.2398 11.4507 15.3595C11.3914 16.5704 11.3786 16.9336 11.3786 20.0003C11.3786 23.0667 11.3914 23.4299 11.4507 24.6411C11.5055 25.7608 11.7066 26.3687 11.8756 26.7734C12.0737 27.2723 12.389 27.7234 12.7991 28.0939C13.1974 28.4753 13.6822 28.7689 14.2186 28.9529C14.6536 29.1104 15.3075 29.2975 16.5111 29.3484C17.8129 29.4037 18.203 29.4153 21.4997 29.4153C24.7967 29.4153 25.1871 29.4037 26.4885 29.3484C27.6922 29.2975 28.346 29.1104 28.7811 28.9529C29.8578 28.5666 30.7088 27.775 31.1241 26.7734C31.293 26.3687 31.4941 25.7608 31.5493 24.6411C31.6086 23.4299 31.6211 23.0667 31.6211 20.0003C31.6211 16.9336 31.6086 16.5704 31.5493 15.3595C31.4945 14.2398 31.2934 13.6316 31.1241 13.2269ZM21.5 25.8972C17.9986 25.8972 15.1602 23.2571 15.1602 20C15.1602 16.7429 17.9986 14.1028 21.5 14.1028C25.0011 14.1028 27.8395 16.7429 27.8395 20C27.8395 23.2571 25.0011 25.8972 21.5 25.8972ZM26.6086 13.8696C26.6086 14.6307 27.272 15.2478 28.0901 15.2478C28.9083 15.2478 29.5714 14.6307 29.5717 13.8696C29.5717 13.1085 28.9083 12.4915 28.0901 12.4915C27.272 12.4915 26.6086 13.1085 26.6086 13.8696ZM25.6152 20C25.6152 22.1143 23.7728 23.8281 21.5 23.8281C19.2272 23.8281 17.3848 22.1143 17.3848 20C17.3848 17.8857 19.2272 16.1719 21.5 16.1719C23.7728 16.1719 25.6152 17.8857 25.6152 20Z" fill="#62AC9A"/>
</svg>
