<svg width="43" height="40" viewBox="0 0 43 40" fill="none" xmlns="http://www.w3.org/2000/svg">
<path fill-rule="evenodd" clip-rule="evenodd" d="M0 20C0 8.95599 9.62769 0 21.5 0C33.3723 0 43 8.95599 43 20C43 31.044 33.3723 40 21.5 40C9.62769 40 0 31.044 0 20ZM10.0161 30.2344H15.2523V15.5801H10.0161V30.2344ZM12.6344 13.5791H12.6003C10.8432 13.5791 9.70676 12.4539 9.70676 11.0477C9.70676 9.60968 10.8779 8.51562 12.6692 8.51562C14.4604 8.51562 15.5627 9.60968 15.5968 11.0477C15.5968 12.4539 14.4604 13.5791 12.6344 13.5791ZM28.8975 30.2344H34.1331V21.8317C34.1331 17.3306 31.5499 15.2362 28.1049 15.2362C25.3269 15.2362 24.0819 16.6565 23.386 17.655V15.5801H18.1501C18.2187 16.955 18.1501 30.2344 18.1501 30.2344H23.386V22.0508C23.386 21.6129 23.4198 21.1752 23.5583 20.8621C23.9369 19.9872 24.7984 19.0808 26.2448 19.0808C28.1394 19.0808 28.8975 20.4245 28.8975 22.3947V30.2344Z" fill="#62AC9A"/>
</svg>
