<svg width="43" height="40" viewBox="0 0 43 40" fill="none" xmlns="http://www.w3.org/2000/svg">
<path fill-rule="evenodd" clip-rule="evenodd" d="M0 20C0 8.95599 9.62769 0 21.5 0C33.3723 0 43 8.95599 43 20C43 31.044 33.3723 40 21.5 40C9.62769 40 0 31.044 0 20ZM31.3308 16.1871C31.3308 15.9885 31.3262 15.7907 31.3167 15.5939C32.2802 14.946 33.1177 14.1373 33.7781 13.2166C32.894 13.5822 31.9426 13.8284 30.9443 13.9395C31.9633 13.371 32.7454 12.4719 33.1144 11.4005C32.1608 11.9263 31.1051 12.3083 29.9808 12.5146C29.0802 11.6223 27.7982 11.0641 26.3786 11.0641C23.6534 11.0641 21.4432 13.1201 21.4432 15.6543C21.4432 16.0144 21.4869 16.3647 21.5715 16.701C17.4701 16.5091 13.8331 14.6823 11.3996 11.9046C10.9757 12.583 10.7313 13.371 10.7313 14.212C10.7313 15.8047 11.6023 17.2107 12.9274 18.0331C12.1177 18.0099 11.3572 17.803 10.6923 17.4591C10.6916 17.4783 10.6916 17.4969 10.6916 17.5177C10.6916 19.7406 12.3926 21.597 14.6507 22.0175C14.236 22.1228 13.7997 22.1793 13.3493 22.1793C13.032 22.1793 12.7226 22.15 12.4218 22.0963C13.0504 23.9203 14.8718 25.2475 17.0321 25.2847C15.3429 26.5161 13.2151 27.2498 10.9029 27.2498C10.5049 27.2498 10.1119 27.2287 9.72578 27.1863C11.9097 28.4885 14.5031 29.2484 17.29 29.2484C26.3672 29.248 31.3308 22.2531 31.3308 16.1871Z" fill="#62AC9A"/>
</svg>
