<?xml version="1.0" encoding="UTF-8"?>
<svg width="512px" height="89px" viewBox="0 0 512 89" version="1.1" xmlns="http://www.w3.org/2000/svg" xmlns:xlink="http://www.w3.org/1999/xlink">
    <!-- Generator: Sketch 63.1 (92452) - https://sketch.com -->
    <title>Group</title>
    <desc>Created with Sketch.</desc>
    <g id="Page-1" stroke="none" stroke-width="1" fill="none" fill-rule="evenodd">
        <g id="Group">
            <rect id="Rectangle" fill="#FFFFFF" x="0" y="0" width="512" height="89"></rect>
            <g id="awt_logo" transform="translate(21.000000, 15.000000)"></g>
            <path d="M80.3359322,73.7566948 C80.2493147,73.612514 79.6141194,73.4503106 78.9211791,73.3782202 C77.0444658,73.1799715 75.7452028,72.6753385 74.9367724,71.8643214 C74.5325572,71.4498014 73.839617,70.7288972 73.3487843,70.2783321 C72.5692264,69.5394053 72.1938837,69.1248854 71.4431985,68.2417778 C71.2988359,68.0975969 70.7502582,67.4668057 70.1728079,66.8360146 C69.6242302,66.2232461 69.1622699,65.6285 69.1622699,65.5383871 C69.1622699,65.448274 68.7003098,64.8535281 68.151732,64.2407595 C66.6214889,62.5646572 66.4771263,62.4204764 65.841931,62.0780469 C65.5243334,61.8978209 64.8602656,61.5013236 64.369433,61.1949393 C63.7053651,60.7804194 63.243405,60.6542611 62.6370822,60.7083289 C61.8286519,60.7623968 61.7997793,60.798442 61.7131618,61.8978209 C61.5976717,63.2495162 62.059632,64.8355054 62.7525723,65.7005905 C63.2722775,66.313359 63.2722775,66.3674269 62.6948272,67.8092353 C62.2617396,68.8545463 61.9441419,69.3231341 61.5976717,69.3772019 C61.3089466,69.4312697 60.875859,69.737654 60.6448789,70.0800834 C60.1829186,70.6568068 58.8259106,71.3056206 58.1040978,71.3056206 C57.4111575,71.287598 56.5738546,70.6387842 55.7654243,69.5394053 C55.0436114,68.4940942 54.9569939,68.2417778 55.072484,66.7098563 C55.1591015,65.2320027 55.245719,64.9616637 55.8520418,64.5651664 C56.5738546,64.078556 57.0935598,62.4745442 56.5161096,62.4745442 C56.3428745,62.4745442 55.187974,62.6727928 53.9753285,62.9251093 C52.762683,63.1774258 51.57891,63.3756745 51.3768025,63.3756745 C51.1746949,63.3756745 50.5394996,63.6279909 49.9909218,63.9343752 C49.4423441,64.2227369 48.0564635,64.7814377 46.901563,65.1418898 C45.7466625,65.5023419 44.476272,65.9348844 44.0720568,66.0790652 C43.5812241,66.2592913 42.5129412,66.3494042 40.9538255,66.3494042 C38.6728971,66.3494042 38.0377018,66.2412686 38.9904947,66.0069748 C39.3658373,65.9168617 39.3658373,65.8267487 38.9327496,65.2680479 C38.557407,64.7814377 38.5285345,64.583189 38.7883871,64.4209856 C39.0482397,64.2587821 39.1348572,64.2768047 39.1348572,64.5651664 C39.1637298,65.0517767 39.8277975,65.5383871 40.5207378,65.5383871 C41.2136781,65.5383871 41.4735307,65.2139802 41.0981881,64.763415 C40.6651004,64.2227369 41.0115705,64.2227369 41.993236,64.7273698 C42.8594113,65.1959575 42.8882838,65.1959575 43.5812241,64.8715506 C47.9409735,62.7629059 48.8648939,62.2943182 49.211364,62.0420017 C49.4134716,61.8797982 49.8176867,61.75364 50.1064119,61.75364 C50.5972446,61.75364 51.9542527,61.1228488 54.0619461,59.8612665 C55.245719,59.1583849 55.2745916,59.0862945 55.5633167,57.5183279 C55.7365518,56.6352202 55.8809143,55.3916605 55.8809143,54.7969145 L55.8809143,53.6975357 L54.0908186,53.2830157 C52.589448,52.9405862 51.9253801,52.8865184 49.5578342,52.9766315 C47.7099934,53.0306993 46.2086227,53.1929027 45.0537222,53.4452192 C44.1009293,53.6614904 42.9749014,53.8777617 42.5706862,53.8957843 C42.166471,53.9138069 41.4157857,54.1120555 40.924953,54.3283268 C40.4629928,54.5445981 39.9432876,54.7248241 39.8277975,54.7248241 C39.683435,54.7248241 38.730642,55.0852762 37.6912316,55.5358414 C36.6518212,55.9683839 34.9194704,56.5451072 33.822315,56.7794011 C32.7251595,57.0317175 31.570259,57.3921696 31.2237889,57.5904183 C30.8773187,57.7706444 30.0688884,58.1130738 29.3759481,58.3293451 C28.6830078,58.563639 27.3259997,59.3025658 26.3443343,60.0054474 C23.1106129,62.2943182 23.0239954,62.3303634 21.5803698,61.5193461 C20.5409593,60.9246002 20.858557,60.2577638 22.8507603,58.833978 C23.7746807,58.1851642 26.6908044,56.8875367 27.2393822,56.8875367 C27.7879599,56.8875367 29.6935457,56.0044291 31.7723666,54.7608693 C33.822315,53.5353322 35.7856458,52.5260663 37.1426539,51.9853882 C38.4707895,51.4627326 40.0010326,50.4174216 40.0010326,50.0389469 C40.0010326,49.6784948 40.4629928,48.2186637 41.6467658,44.9025045 C41.8777459,44.2176455 42.4551961,42.920018 42.9171563,42.0188877 C43.3791165,41.13578 43.7544592,40.2346498 43.7544592,40.0364012 C43.7544592,39.6399039 45.3424474,36.7562871 45.9487701,36.0173603 C46.1797502,35.7470212 46.3529853,35.3865691 46.3529853,35.2243657 C46.3529853,35.0441396 46.843818,34.3052128 47.4501408,33.6023313 C48.085336,32.8814271 48.6627863,32.0884325 48.7494038,31.836116 C48.8648939,31.5837995 49.4423441,30.8989405 50.0775394,30.3041945 C50.7127346,29.7094486 51.2613124,29.1147026 51.2613124,29.006567 C51.2613124,28.8804088 51.636655,28.5560019 52.1274877,28.2856628 C53.2246432,27.6909168 53.2246432,27.456623 52.1563603,24.536961 C51.6944001,23.257356 50.8859697,20.7882592 50.3662645,19.0761117 C49.5867066,16.4267888 49.5000891,15.8861107 49.8176867,15.5256586 C50.0197943,15.2913647 50.337392,15.0750935 50.510627,15.0390482 C51.2901849,14.8948674 56.8625797,15.1832291 56.9491973,15.3634551 C57.0646873,15.5797264 55.9097869,16.3546984 54.2063087,17.2558286 C52.4450854,18.1749815 52.647193,19.3284282 55.2745916,23.5457177 C55.9386593,24.5910288 56.4583645,25.6002947 56.4583645,25.8165659 C56.4583645,26.1589955 56.6315997,26.177018 58.2773328,26.1589955 C59.6920859,26.1589955 60.2984087,26.0508598 60.933604,25.7444755 C61.9441419,25.2398426 62.6370822,25.2398426 63.41664,25.726453 C63.9940903,26.086905 64.0229628,26.2310859 63.8497277,27.7630073 C63.7631102,28.6641375 63.41664,30.2681493 63.0990424,31.3314831 C62.5215921,33.2959469 61.9730145,36.5400158 61.3666917,41.2078705 C61.106839,43.100244 61.106839,44.5420524 61.3089466,46.4344259 C61.5976717,48.7593419 61.7420343,49.2279296 62.6370822,50.669738 C63.18566,51.5708683 63.7342377,52.5801342 63.8497277,52.9225636 C63.9363452,53.2649931 64.1961979,53.8056713 64.4271779,54.1300782 C64.6581581,54.4364624 64.8313931,55.2114345 64.8313931,55.8422256 C64.8313931,56.8154463 64.9757557,57.1398532 65.6975685,57.8427348 C66.1884012,58.3113225 66.5637439,58.7618876 66.5637439,58.8520007 C66.5637439,58.9240911 66.910214,59.3205884 67.3433017,59.6990631 C68.2960946,60.5641481 71.7607961,64.8895733 71.7607961,65.2139802 C71.7607961,65.3401384 72.3382463,66.1691782 73.0600592,67.0703084 C73.7529994,67.9534161 74.7924099,69.3231341 75.3698601,70.0981061 L76.3803981,71.4858466 L77.8240236,71.4858466 C79.2099043,71.4858466 79.2676492,71.5038693 79.2676492,71.972457 L79.2676492,72.4410447 L79.9894621,72.0265248 C80.942255,71.4678241 81.2021076,71.6840953 80.3936772,72.3689543 L79.7296095,72.927655 L80.3648047,73.2160167 C80.7112749,73.3601975 81,73.612514 81,73.7566948 C81,74.0811017 80.5380398,74.0811017 80.3359322,73.7566948 Z" id="Green" fill="#62AC9A" transform="translate(51.000000, 44.500000) scale(-1, 1) rotate(180.000000) translate(-51.000000, -44.500000) "></path>
            <text id="dance-company" fill="#C8381F" font-family="Roboto-Thin, Roboto" font-size="28" font-weight="300">
                <tspan x="303" y="71">dance company</tspan>
            </text>
            <text id="ALWAYS-WANTED-TO" fill="#62AC9A" font-family="Roboto-Thin, Roboto" font-size="30" font-weight="300" letter-spacing="0.25">
                <tspan x="89" y="38">ALWAYS WANTED TO</tspan>
            </text>
        </g>
    </g>
</svg>