<?xml version="1.0" encoding="UTF-8"?>
<svg width="14px" height="8px" viewBox="0 0 14 8" version="1.1" xmlns="http://www.w3.org/2000/svg" xmlns:xlink="http://www.w3.org/1999/xlink">
    <!-- Generator: Sketch 63.1 (92452) - https://sketch.com -->
    <title>Combined Shape</title>
    <desc>Created with Sketch.</desc>
    <g id="Iphone" stroke="none" stroke-width="1" fill="none" fill-rule="evenodd">
        <g id="Nav-Menu-Dropdown" transform="translate(-58.000000, -840.000000)" fill="#62AC9A" fill-rule="nonzero">
            <g id="&lt;App-/&gt;" transform="translate(0.000000, 12.000000)">
                <g id="ContactInformation" transform="translate(51.000000, 771.000000)">
                    <g id="561188" transform="translate(7.000000, 57.000000)">
                        <path d="M13.8704161,1 C13.9511183,1.12126681 14,1.25533228 14,1.39847468 L14,1.39847468 L14,7.60138059 C14,7.74460569 13.9510032,7.87869184 13.8702435,8 L13.8702435,8 L9,4.49996899 Z M0.129755048,1 L5,4.50005169 L1.595,6.946 L4.77830057,5 L6.17256196,5.85267192 C6.2552365,5.90325049 6.36359689,5.92853978 6.47190082,5.92853978 C6.58020475,5.92853978 6.68853691,5.90325049 6.77123967,5.85267192 L6.77123967,5.85267192 L8.22195347,5.00003452 L13,7.92214697 C12.8343969,7.97060228 12.65135,8 12.4558271,8 L12.4558271,8 L0.544370501,8 C0.416849904,8 0.294609136,7.98748767 0.179064325,7.96533873 L0.129639966,8 C0.117835253,7.98226161 0.10671016,7.96424848 0.0963184469,7.94597253 L0,7.92207792 L0.0640387284,7.8831607 C0.0232170709,7.79438456 0,7.70007872 0,7.60148633 L0,7.60148633 L0,1.39861706 C0,1.2553928 0.0489961965,1.12130745 0.129755048,1 L0.129755048,1 Z M12.4556295,0 C12.6512088,0 12.8343687,0.0364645043 13,0.0965400425 L13,0.0965400425 L7.92247348,3.94353455 L7.92247348,3.94353455 L6.47167501,5 L0,0.0964544953 C0.165603118,0.0364217307 0.348650028,0 0.544172918,0 L0.544172918,0 Z" id="Combined-Shape"></path>
                    </g>
                </g>
            </g>
        </g>
    </g>
</svg>