<?xml version="1.0" encoding="UTF-8"?>
<svg width="14px" height="11px" viewBox="0 0 14 11" version="1.1" xmlns="http://www.w3.org/2000/svg" xmlns:xlink="http://www.w3.org/1999/xlink">
    <!-- Generator: Sketch 63.1 (92452) - https://sketch.com -->
    <title>1034182</title>
    <desc>Created with Sketch.</desc>
    <g id="Iphone" stroke="none" stroke-width="1" fill="none" fill-rule="evenodd">
        <g id="Nav-Menu-Dropdown" transform="translate(-58.000000, -821.000000)" fill="#62AC9A" fill-rule="nonzero">
            <g id="&lt;App-/&gt;" transform="translate(0.000000, 12.000000)">
                <g id="ContactInformation" transform="translate(51.000000, 771.000000)">
                    <g id="1034182" transform="translate(7.000000, 38.000000)">
                        <path d="M2.04489535,0.0684273456 C2.32461904,-0.063377718 2.68681063,0.00064495349 2.86774236,0.213896308 L2.86774236,0.213896308 L3.93077441,1.46676413 L4.82217151,2.51744492 C4.99932984,2.72667874 4.94122497,3.00784139 4.68892678,3.16226923 L4.68892678,3.16226923 L3.59138727,3.83306785 C3.35322566,3.97714034 3.28478496,4.23634623 3.43038893,4.44298047 C3.75263171,4.898143 4.05797623,5.43485923 5.56946852,6.62398367 C7.0809608,7.81310812 7.76599674,8.05149589 8.34529547,8.30468622 C8.60828496,8.41908915 8.93818391,8.3653144 9.12157656,8.17818774 L9.12157656,8.17818774 L9.9753217,7.31583673 C10.1718939,7.11758128 10.5297379,7.07194902 10.7960086,7.21114462 L10.7960086,7.21114462 L12.1757327,7.93371996 L13.7277753,8.74676492 C13.9991866,8.88892533 14.0806702,9.17348247 13.9128906,9.39328648 L13.9128906,9.39328648 L13.177406,10.3565269 C12.982201,10.6168714 12.6669855,10.8082305 12.2971103,10.8909658 C11.0747752,11.1544041 8.37859982,11.2076847 4.05723796,7.81233469 C-0.264123903,4.41698469 -0.196530847,2.29837137 0.138727428,1.33796684 C0.244054471,1.04735118 0.48760275,0.799682268 0.818923566,0.64630715 L0.818923566,0.64630715 Z M7.3000136,1 C10.446588,1.00288867 12.9965336,3.12784335 13,5.74998867 C13,5.8880783 12.86566,6 12.6999864,6 C12.5342789,6 12.3999728,5.88804998 12.3999728,5.74998867 C12.3968463,3.40385269 10.1153088,1.5025998 7.29997962,1.5 C7.13427206,1.5 7,1.38804432 7,1.25001133 C7,1.1119217 7.13434003,1 7.3000136,1 Z M7.28572584,2 C9.33610331,2.00177203 10.9976373,3.24794679 11,4.78570562 C11,4.90406758 10.8720577,5 10.7142742,5 C10.5564582,5 10.4285483,4.90404331 10.4285483,4.78570562 C10.4265093,3.48454935 9.02063324,2.43011805 7.28572584,2.42858877 C7.12790989,2.42858877 7,2.33265635 7,2.21429438 C7,2.09593242 7.12794226,2 7.28572584,2 Z M7.37501594,3 C8.82406083,3.00110449 9.99834327,3.78395945 10,4.74998938 C10,4.88807862 9.83207545,5 9.62498407,5 C9.41785022,5 9.24996814,4.8880503 9.24996814,4.74998938 C9.24873621,4.059968 8.41000553,3.50081421 7.37497346,3.5 C7.1678396,3.5 6.99995753,3.38807154 7,3.25001062 C7,3.11192138 7.16792456,3 7.37501594,3 Z" id="Combined-Shape"></path>
                    </g>
                </g>
            </g>
        </g>
    </g>
</svg>