<?xml version="1.0" encoding="UTF-8"?>
<svg width="12px" height="13px" viewBox="0 0 12 13" version="1.1" xmlns="http://www.w3.org/2000/svg" xmlns:xlink="http://www.w3.org/1999/xlink">
    <!-- Generator: Sketch 63.1 (92452) - https://sketch.com -->
    <title>Clock</title>
    <desc>Created with Sketch.</desc>
    <g id="Iphone" stroke="none" stroke-width="1" fill="none" fill-rule="evenodd">
        <g id="RegisterModal" transform="translate(-46.000000, -428.000000)">
            <g id="&lt;&gt;" opacity="0.412946429" transform="translate(0.000000, 12.000000)">
                <rect id="Rectangle" fill="#7E62AC" x="40" y="424" width="90" height="24"></rect>
                <g id="Drop-Buttons" transform="translate(15.000000, 424.000000)">
                    <g id="Donate" transform="translate(25.000000, 0.000000)"></g>
                </g>
            </g>
            <path d="M351,84 L28,84 L28,562 L351,562 L351,84 Z" id="Background" stroke="#AC6F62" stroke-width="2" fill="#FFFFFF"></path>
            <g id="Date" transform="translate(46.000000, 428.000000)" fill="#000000" fill-rule="nonzero">
                <path d="M6,0.895695364 C9.30834164,0.895695364 12,3.58735372 12,6.89569536 C12,10.204037 9.30834164,12.8956954 6,12.8956954 C2.69165836,12.8956954 0,10.204037 0,6.89569536 C0,3.58735372 2.69165836,0.895695364 6,0.895695364 Z M6,1.64569875 C3.10509955,1.64569875 0.750003384,4.00079491 0.750003384,6.89569536 C0.750003384,9.79059581 3.10509955,12.1456987 6,12.1456987 C8.89490045,12.1456987 11.2500034,9.79059581 11.2500034,6.89569536 C11.2500034,4.00079491 8.89490045,1.64569875 6,1.64569875 Z M5.77851356,2.89569536 L5.77851356,6.33829197 L8,8.38785967 L7.44956681,8.89569536 L5,6.63569822 L5,2.89569536 L5.77851356,2.89569536 Z" id="Clock"></path>
            </g>
        </g>
    </g>
</svg>