<?xml version="1.0" encoding="UTF-8"?>
<svg width="12px" height="19px" viewBox="0 0 12 19" version="1.1" xmlns="http://www.w3.org/2000/svg" xmlns:xlink="http://www.w3.org/1999/xlink">
    <!-- Generator: Sketch 63.1 (92452) - https://sketch.com -->
    <title>Address</title>
    <desc>Created with Sketch.</desc>
    <g id="Iphone" stroke="none" stroke-width="1" fill="none" fill-rule="evenodd">
        <g id="RegisterModal" transform="translate(-61.000000, -446.000000)">
            <g id="&lt;&gt;" opacity="0.412946429" transform="translate(0.000000, 12.000000)">
                <rect id="Rectangle" fill="#7E62AC" x="40" y="424" width="90" height="24"></rect>
                <text id="DONATE" font-family="Roboto-Light, Roboto" font-size="11" font-weight="300" letter-spacing="1.65" fill="#FFFFFF">
                    <tspan x="59.9033864" y="439">DONATE</tspan>
                </text>
                <line x1="15.5291411" y1="449.5" x2="359.470859" y2="449.5" id="Line-2" stroke="#6D7278" stroke-width="3" stroke-linecap="square"></line>
                <g id="Drop-Buttons" transform="translate(15.000000, 424.000000)">
                    <g id="Donate" transform="translate(25.000000, 0.000000)"></g>
                </g>
            </g>
            <path d="M351,84 L28,84 L28,562 L351,562 L351,84 Z" id="Background" stroke="#AC6F62" stroke-width="2" fill="#FFFFFF"></path>
            <g id="Address" transform="translate(61.000000, 443.000000)" fill="#000000" fill-rule="nonzero">
                <path d="M6,3.89569536 C9.30833729,3.89569536 12,6.58736333 12,9.89567193 C12,10.888836 11.7516919,11.8735977 11.281478,12.7440665 L11.281478,12.7440665 L6.32811264,21.702336 C6.2621948,21.8217266 6.13658176,21.8956954 6,21.8956954 C5.86341824,21.8956954 5.7378052,21.8217266 5.67188736,21.702336 L5.67188736,21.702336 L0.720350156,12.7470196 C0.248308109,11.8735977 0,10.8888711 0,9.89570708 C0,6.58736333 2.69166271,3.89569536 6,3.89569536 Z M6,4.6457188 C3.10513456,4.6457188 0.750021973,7.00080083 0.750021973,9.89570708 C0.750021973,10.7647344 0.967181705,11.6264141 1.37843871,12.3874063 L1.37843871,12.3874063 L6,20.7458047 L10.6233894,12.3841016 C11.0328183,11.6264141 11.249978,10.7646993 11.249978,9.89570708 C11.249978,7.00083599 8.89486544,4.6457188 6,4.6457188 Z M6,6.89569536 C7.65417834,6.89569536 9,8.2415443 9,9.89571294 C9,11.5498816 7.65417834,12.8956954 6,12.8956954 C4.34582166,12.8956954 3,11.5498816 3,9.89567779 C3,8.24150914 4.34582166,6.89569536 6,6.89569536 Z M6,7.64571734 C4.75926078,7.64571734 3.74999121,8.65498099 3.74999121,9.89571294 C3.74999121,11.1364449 4.75926078,12.1457173 6,12.1457173 C7.24073922,12.1457173 8.25000879,11.1364097 8.25000879,9.89571294 C8.25000879,8.65498099 7.24073922,7.64571734 6,7.64571734 Z"></path>
            </g>
        </g>
    </g>
</svg>